<svg xmlns="http://www.w3.org/2000/svg" viewBox="0 0 512 512" role="img" aria-label="Controle de Pátio">
  <defs>
    <linearGradient id="blue" x1="72" y1="48" x2="440" y2="464" gradientUnits="userSpaceOnUse">
      <stop stop-color="#1698ff"/>
      <stop offset="1" stop-color="#0765dc"/>
    </linearGradient>
  </defs>
  <rect width="512" height="512" rx="116" fill="url(#blue)"/>
  <g fill="none" stroke="#fff" stroke-width="28" stroke-linecap="round" stroke-linejoin="round">
    <path d="M126 230l29-80c6-18 23-30 42-30h118c19 0 36 12 42 30l29 80"/>
    <path d="M112 230h288v128c0 19-15 34-34 34H146c-19 0-34-15-34-34V230Z"/>
    <path d="M112 230l-34-28M400 230l34-28"/>
    <path d="M150 392v34M362 392v34"/>
    <path d="M170 312h1M341 312h1" stroke-width="36"/>
  </g>
</svg>
